<?xml version="1.0" standalone="no"?>
<!DOCTYPE svg PUBLIC "-//W3C//DTD SVG 20010904//EN"
 "http://www.w3.org/TR/2001/REC-SVG-20010904/DTD/svg10.dtd">
<svg version="1.0" xmlns="http://www.w3.org/2000/svg"
 width="3200.000000pt" height="3200.000000pt" viewBox="0 0 3200.000000 3200.000000"
 preserveAspectRatio="xMidYMid meet">
<metadata>
Created by potrace 1.11, written by Peter Selinger 2001-2013
</metadata>
<g transform="translate(0.000000,3200.000000) scale(0.100000,-0.100000)"
fill="#000000" stroke="none">
<path d="M4117 25734 c-1 -1 -51 -4 -112 -8 -60 -3 -121 -7 -135 -10 -14 -2
-47 -7 -75 -10 -61 -8 -102 -14 -135 -22 -14 -4 -36 -8 -51 -10 -49 -6 -257
-74 -339 -110 -209 -91 -377 -219 -494 -374 -22 -30 -44 -57 -47 -60 -17 -13
-113 -196 -145 -275 -64 -158 -122 -391 -139 -555 -4 -30 -8 -68 -10 -85 -2
-16 -7 -79 -11 -140 -9 -145 -9 -16007 0 -16110 4 -44 9 -102 12 -130 2 -27 7
-67 10 -88 3 -20 7 -47 9 -60 1 -12 6 -40 10 -62 4 -22 9 -48 11 -58 2 -10 5
-26 8 -35 3 -9 7 -28 10 -42 9 -49 56 -199 85 -274 147 -368 432 -639 818
-776 155 -55 406 -104 603 -118 130 -9 2965 -9 3066 0 128 12 302 44 394 74
138 43 294 123 370 191 58 50 68 61 117 118 85 100 166 275 188 404 3 19 7 37
9 40 7 12 19 150 20 241 7 471 -167 796 -521 974 -63 32 -136 62 -173 71 -8 2
-15 4 -15 5 0 2 -5 3 -75 20 -111 28 -225 46 -359 55 -20 1 -459 3 -977 4
l-941 1 0 7504 0 7503 919 1 c1011 1 1012 1 1268 39 59 9 221 58 303 93 151
63 313 191 396 313 75 110 143 288 157 411 4 28 9 71 13 96 8 56 7 236 -3 312
-45 363 -235 637 -551 796 -71 35 -219 86 -295 101 -30 6 -64 12 -75 15 -11 2
-47 7 -80 11 -33 4 -71 10 -85 12 -21 4 -2948 11 -2953 7z"/>
<path d="M25047 25734 c-1 -1 -36 -5 -77 -8 -536 -46 -915 -292 -1067 -694
-57 -154 -82 -388 -59 -572 10 -82 47 -211 83 -287 26 -56 81 -153 93 -163 3
-3 17 -21 31 -40 64 -85 185 -189 298 -255 141 -83 354 -149 546 -169 28 -3
73 -8 100 -11 28 -4 467 -6 976 -6 l926 -1 0 -7504 0 -7504 -916 -1 c-980 -1
-1006 -1 -1146 -24 -307 -49 -534 -157 -705 -333 -89 -92 -100 -105 -149 -185
-69 -114 -124 -276 -138 -412 -16 -163 -5 -330 32 -465 1 -3 5 -18 10 -35 16
-58 85 -196 132 -263 154 -216 367 -355 667 -432 106 -27 136 -32 315 -50 88
-8 2986 -6 3046 3 22 3 63 9 90 12 103 12 131 16 205 31 411 85 693 248 896
516 131 174 241 434 289 683 5 22 10 47 11 55 3 14 6 39 19 135 8 62 14 123
21 210 9 116 9 15991 0 16110 -10 136 -24 267 -31 295 -2 8 -7 35 -10 60 -15
112 -74 314 -128 440 -157 366 -418 607 -802 741 -49 17 -97 32 -105 34 -8 2
-46 11 -85 20 -38 9 -81 19 -95 21 -69 12 -141 23 -195 30 -33 4 -73 9 -90 11
-28 3 -2984 10 -2988 7z"/>
<path d="M9680 22092 c-37 -3 -138 -18 -182 -27 -59 -12 -200 -65 -255 -96
-320 -179 -518 -466 -558 -809 -18 -151 3 -412 55 -675 6 -27 13 -61 15 -75 3
-14 7 -37 10 -52 13 -69 103 -439 252 -1033 30 -121 56 -229 59 -240 4 -22 42
-170 49 -195 2 -8 11 -44 19 -80 8 -36 38 -157 66 -270 60 -244 51 -206 90
-365 17 -71 65 -265 107 -430 41 -165 77 -311 79 -324 3 -14 14 -58 25 -98 11
-41 22 -84 25 -96 7 -38 12 -61 29 -124 9 -35 18 -72 21 -83 8 -37 12 -55 53
-215 36 -145 158 -638 166 -675 2 -8 35 -141 73 -295 39 -154 93 -374 121
-490 29 -115 56 -226 61 -245 5 -19 12 -48 16 -65 9 -40 8 -32 44 -175 30
-115 41 -163 56 -230 3 -14 19 -78 35 -142 16 -64 32 -125 34 -135 2 -10 27
-110 55 -223 52 -206 56 -223 64 -260 3 -11 37 -147 76 -303 38 -155 72 -291
74 -302 2 -11 27 -111 55 -223 28 -111 53 -213 55 -225 10 -46 15 -63 25 -89
6 -16 9 -28 7 -28 -3 0 234 -942 258 -1030 3 -8 18 -67 35 -130 131 -503 290
-841 500 -1063 205 -216 444 -327 786 -367 74 -8 389 -5 440 4 36 7 89 16 130
23 57 9 236 74 303 109 107 57 190 121 303 233 154 154 247 287 324 466 34 79
197 559 210 618 2 12 30 108 61 212 31 105 66 228 79 275 13 47 80 292 149
545 241 880 289 1057 311 1135 18 64 17 61 91 330 31 113 57 212 59 220 7 27
115 424 130 475 21 73 199 725 210 775 8 30 96 346 105 375 5 17 12 41 14 55
3 14 42 158 86 320 45 162 83 302 85 310 2 8 13 49 25 90 11 41 32 118 46 170
32 117 81 293 94 340 6 19 29 103 51 185 22 83 47 174 55 203 8 28 20 76 28
105 8 28 42 153 76 277 34 124 64 234 67 245 3 11 20 74 38 140 19 66 43 154
53 195 41 153 143 524 145 527 2 1 15 -43 30 -100 15 -56 39 -145 53 -197 14
-52 27 -102 29 -110 2 -8 31 -116 65 -240 159 -586 192 -706 195 -720 2 -8 18
-67 35 -130 18 -63 35 -131 39 -151 4 -19 10 -40 14 -45 3 -6 8 -21 10 -35 4
-19 100 -380 158 -589 7 -25 13 -49 15 -55 1 -5 10 -37 19 -70 9 -33 24 -91
35 -130 10 -38 30 -114 45 -168 14 -53 28 -105 30 -115 3 -9 31 -116 65 -237
33 -121 62 -230 64 -243 3 -13 10 -38 15 -55 6 -18 24 -84 41 -147 17 -63 42
-158 56 -210 14 -52 27 -102 29 -110 2 -8 27 -98 55 -200 28 -102 53 -192 54
-200 2 -8 32 -118 66 -245 35 -126 77 -286 95 -355 19 -69 56 -208 84 -310 62
-230 207 -769 268 -995 25 -93 54 -201 65 -239 11 -38 22 -77 24 -87 8 -38 14
-59 94 -349 74 -271 136 -489 159 -565 5 -16 31 -100 57 -185 125 -408 197
-597 280 -730 65 -103 85 -129 194 -243 227 -238 477 -362 800 -395 132 -14
376 -8 520 12 103 15 238 56 340 104 75 35 211 124 241 159 9 10 34 35 57 56
116 107 235 271 311 430 48 98 111 275 165 462 15 50 31 104 36 120 9 28 57
202 65 235 2 8 17 65 33 125 31 113 91 346 97 378 2 10 7 27 10 37 3 10 8 28
10 40 7 37 85 353 95 385 7 24 33 130 65 268 2 10 7 27 10 37 3 10 7 27 9 37
2 10 13 54 25 98 11 44 22 94 26 112 3 18 9 43 15 57 5 15 7 26 4 26 -2 0 0 8
5 18 5 9 11 31 14 47 3 17 18 77 32 135 15 58 28 112 30 120 7 31 276 1119
305 1230 16 63 31 126 34 140 3 14 26 106 51 205 25 99 47 189 49 200 2 11 21
85 41 165 20 80 38 152 40 160 10 47 109 447 126 510 28 106 131 522 133 540
2 8 5 24 9 35 3 11 8 31 11 45 2 14 14 63 26 110 12 47 24 92 26 100 11 46 26
107 29 120 2 8 20 80 40 160 20 80 38 152 40 160 10 43 226 919 232 940 3 14
7 30 8 35 2 6 26 105 55 220 28 116 53 217 55 225 4 18 269 1092 290 1175 9
33 18 71 21 85 3 14 18 86 34 161 27 127 32 149 44 224 3 17 7 44 10 60 43
256 51 428 29 585 -33 225 -126 407 -292 570 -97 96 -111 107 -189 157 -172
110 -376 166 -612 167 -81 0 -217 -10 -241 -18 -7 -3 -28 -7 -46 -10 -144 -20
-332 -124 -444 -244 -259 -279 -318 -437 -533 -1417 -48 -214 -91 -406 -96
-425 -8 -29 -44 -193 -64 -290 -3 -14 -21 -92 -40 -175 -47 -206 -74 -325 -80
-355 -2 -14 -14 -63 -25 -110 -11 -47 -23 -98 -26 -115 -3 -16 -8 -41 -11 -55
-3 -14 -7 -33 -10 -42 -3 -9 -7 -25 -9 -35 -2 -10 -24 -112 -50 -228 -74 -330
-85 -379 -90 -400 -12 -61 -67 -304 -89 -395 -14 -58 -27 -118 -30 -135 -3
-16 -22 -102 -42 -190 -55 -243 -175 -777 -180 -800 -5 -28 -13 -61 -20 -87
-3 -13 -7 -34 -10 -48 -3 -14 -10 -45 -15 -70 -6 -25 -12 -52 -14 -60 -3 -15
-37 -167 -77 -340 -10 -47 -21 -94 -23 -105 -6 -26 -28 -128 -30 -135 -1 -3
-5 -21 -9 -40 -4 -19 -16 -71 -26 -115 -11 -44 -21 -91 -24 -105 -2 -14 -16
-74 -30 -135 -14 -60 -27 -121 -30 -135 -9 -44 -15 -71 -20 -88 -3 -9 -7 -28
-10 -42 -2 -14 -16 -77 -30 -140 -15 -63 -28 -124 -31 -135 -2 -11 -18 -81
-35 -155 -17 -74 -35 -155 -40 -180 -5 -25 -30 -133 -54 -240 -24 -107 -63
-278 -86 -380 -39 -176 -49 -211 -51 -179 -1 19 0 17 -69 269 -34 124 -63 232
-65 240 -2 8 -10 40 -19 71 -9 31 -19 65 -21 75 -10 42 -105 391 -115 421 -6
18 -13 40 -14 50 -6 26 -50 191 -106 395 -27 98 -52 188 -54 200 -3 13 -12 48
-21 78 -9 30 -18 62 -20 71 -6 29 -126 472 -147 543 -11 38 -21 76 -23 85 -4
19 4 -10 -178 661 -80 294 -155 571 -167 615 -12 44 -28 103 -35 130 -8 28
-44 160 -80 295 -37 135 -73 269 -81 298 -28 103 -43 160 -103 382 -34 124
-65 241 -71 260 -12 42 -210 769 -215 790 -2 8 -27 101 -55 205 -29 105 -60
222 -70 260 -10 39 -52 187 -94 330 -42 143 -78 267 -80 275 -3 8 -19 60 -36
115 -17 55 -38 123 -47 150 -8 28 -19 54 -24 60 -5 5 -9 16 -9 25 0 18 -36
113 -75 196 -95 205 -325 476 -509 598 -141 94 -304 153 -521 191 -104 18
-335 24 -490 12 -277 -21 -517 -105 -713 -249 -85 -63 -251 -232 -320 -326
-204 -277 -293 -540 -693 -2047 -22 -82 -49 -179 -59 -215 -10 -36 -21 -76
-24 -90 -2 -14 -29 -115 -59 -225 -30 -110 -57 -209 -60 -220 -2 -11 -15 -56
-27 -100 -46 -171 -163 -606 -191 -715 -17 -63 -39 -144 -49 -180 -11 -36 -21
-74 -23 -85 -2 -11 -9 -38 -15 -60 -20 -66 -219 -811 -227 -848 -2 -9 -6 -21
-9 -25 -3 -5 -7 -19 -10 -33 -5 -27 -138 -528 -160 -604 -13 -44 -101 -372
-156 -580 -10 -38 -53 -198 -95 -355 -42 -157 -78 -292 -80 -300 -2 -8 -23
-82 -45 -165 -22 -82 -43 -157 -45 -165 -2 -8 -13 -51 -25 -95 -12 -44 -48
-180 -81 -303 -33 -122 -64 -235 -70 -250 -6 -15 -10 -28 -9 -30 3 -7 -13 -73
-20 -77 -6 -4 -26 78 -75 300 -11 53 -24 108 -41 180 -9 39 -18 80 -20 91 -2
12 -18 82 -34 155 -17 73 -33 146 -36 163 -3 16 -7 32 -9 36 -2 4 -7 20 -9 36
-6 32 -8 38 -31 144 -10 41 -21 95 -26 119 -5 23 -14 62 -20 85 -6 22 -13 50
-15 61 -8 42 -74 340 -160 720 -3 11 -7 31 -10 45 -3 14 -16 75 -30 135 -14
61 -27 118 -29 128 -3 10 -6 26 -9 35 -3 9 -7 28 -10 42 -3 14 -8 39 -11 55
-3 17 -15 67 -25 113 -11 46 -22 98 -25 115 -3 18 -10 48 -15 67 -5 19 -30
127 -55 240 -26 113 -48 212 -50 220 -2 8 -13 60 -25 115 -12 55 -26 116 -30
135 -4 19 -20 89 -34 155 -15 66 -36 158 -47 205 -12 47 -23 94 -25 105 -2 11
-6 31 -9 45 -3 14 -7 34 -9 45 -4 18 -22 96 -31 135 -7 30 -34 148 -68 305
-28 126 -232 1030 -253 1120 -2 11 -6 32 -9 47 -3 16 -12 58 -21 95 -9 38 -18
79 -20 93 -3 14 -7 33 -10 42 -3 9 -6 25 -8 35 -2 11 -11 48 -20 84 -13 56
-33 143 -127 564 -9 44 -27 125 -39 180 -11 55 -28 127 -37 160 -8 33 -17 69
-19 80 -7 37 -74 279 -100 360 -78 243 -193 516 -258 611 -14 21 -55 69 -91
105 -124 126 -311 207 -539 234 -56 7 -246 12 -296 7z"/>
</g>
</svg>
