<svg xmlns="http://www.w3.org/2000/svg" viewBox="0 0 2500 600"><defs><style>.cls-1{fill:#d98911;}.cls-2{fill:#1161d9;}.cls-3{fill:#8911d9;}</style></defs><title>WebFrame Text RGB</title><g id="W"><path class="cls-1" d="M185.83,111.76H142.61V487h43.22q33.39,0,33.38,27.69,0,27.42-33.38,27.43H121.39q-15.78,0-26-5.17a32,32,0,0,1-15-15.66Q75.59,510.81,75.59,495V103.74q0-24.31,10.87-35.71t34.93-11.39h64.44q16.81,0,25.1,7.51t8.28,20.18Q219.21,111.77,185.83,111.76Z"/><path class="cls-2" d="M286.67,261.55l35.2,120.63,32-112.12q5.14-17.61,7.62-24t9.29-12.26q6.82-5.84,18.69-5.84,12.06,0,18.89,5.84A33.51,33.51,0,0,1,418,246.42q2.76,6.83,7.71,23.64l32,112.12,35.59-120.63q3.56-13.05,5.74-18.88a25.13,25.13,0,0,1,7.31-10.29q5.14-4.44,14.83-4.45A23.68,23.68,0,0,1,538,234.66a21.07,21.07,0,0,1,7.12,15.82q0,8.29-6.13,25.11L494.9,404.92q-5.73,16.43-8.9,23.73a35.41,35.41,0,0,1-10,13.06q-6.82,5.73-18.69,5.73-12.27,0-19.28-6.13a36.93,36.93,0,0,1-10.38-15q-3.37-8.89-7.32-23.14L389.5,297.94l-29.86,105.2q-5.94,22-12.85,33.13t-24.33,11.17A30.74,30.74,0,0,1,307.33,444,29.16,29.16,0,0,1,297,434.09a74.35,74.35,0,0,1-7.32-15.22q-3.17-8.81-4.94-13.95L241,275.59q-6.53-18.19-6.53-25.11,0-8.7,6.92-15.63a23.16,23.16,0,0,1,17-6.92q13.44,0,18.19,7.62T286.67,261.55Z"/><path class="cls-2" d="M727.66,350.94H622.06q.2,18.39,7.41,32.43t19.19,21.16a50.69,50.69,0,0,0,26.4,7.12,64.53,64.53,0,0,0,17.7-2.28,57.14,57.14,0,0,0,15.52-7.12,117.5,117.5,0,0,0,13.84-10.38q6.33-5.53,16.42-15,4.14-3.55,11.86-3.56,8.31,0,13.45,4.55T769,390.69q0,7.31-5.73,17.1T746,426.58q-11.57,9-29.07,14.93t-40.24,5.93q-52,0-80.88-29.66t-28.87-80.49A134.38,134.38,0,0,1,574,292.9a97.93,97.93,0,0,1,20.77-35.11,90.12,90.12,0,0,1,33.62-22.44q20-7.82,44.29-7.81,31.65,0,54.29,13.35t33.91,34.5q11.28,21.17,11.27,43.11,0,20.38-11.66,26.41T727.66,350.94Zm-105.6-30.65H720Q718,292.6,705,278.85T670.9,265.11q-20.16,0-33.12,13.94T622.06,320.29Z"/><path class="cls-2" d="M862.13,178.5V261q15.23-15.82,31-24.23t39.15-8.4q26.89,0,47.17,12.75t31.44,37q11.17,24.24,11.18,57.45a154.06,154.06,0,0,1-6.23,45,106.93,106.93,0,0,1-18.1,35.5A81.71,81.71,0,0,1,969,439.23a84.25,84.25,0,0,1-37.28,8.21,89.36,89.36,0,0,1-23.43-3,68.13,68.13,0,0,1-18.69-7.81,84.25,84.25,0,0,1-13.15-10q-5.44-5.15-14.34-15.43v5.34q0,15.24-7.31,23a24.37,24.37,0,0,1-18.59,7.81q-11.47,0-18.3-7.81t-6.82-23V180.87q0-16.41,6.63-24.82t18.49-8.4q12.45,0,19.18,8T862.13,178.5Zm2.57,160.37q0,32.24,14.74,49.54t38.66,17.3q20.35,0,35.1-17.69t14.73-50.73q0-21.36-6.13-36.78t-17.4-23.83a42.84,42.84,0,0,0-26.3-8.4,46.92,46.92,0,0,0-27.49,8.4q-12.06,8.42-19,24.32T864.7,338.87Z"/><path class="cls-3" d="M1061.07,232.68h12.86V216.46q0-25.31,6.42-40.24a40.88,40.88,0,0,1,21.76-21.75q15.32-6.83,42-6.82,47.26,0,47.26,23.13a18.29,18.29,0,0,1-4.94,12.86,15.42,15.42,0,0,1-11.67,5.34,83.91,83.91,0,0,1-10.88-1.19,88.32,88.32,0,0,0-13.05-1.19q-14.62,0-18.78,8.61t-4.16,24.62v12.85h13.25q30.85,0,30.85,18.59,0,13.25-8.2,16.81t-22.65,3.56h-13.25v143q0,16-7.61,24.43t-19.68,8.4a24.67,24.67,0,0,1-19.08-8.4q-7.62-8.42-7.61-24.43v-143H1059.1q-12.07,0-18.59-5.44a17.55,17.55,0,0,1-6.53-14.14Q1034,232.68,1061.07,232.68Z"/><path class="cls-3" d="M1253.88,369.53v45.08q0,16.42-7.71,24.62a25.71,25.71,0,0,1-19.58,8.21,24.73,24.73,0,0,1-19.18-8.3q-7.52-8.31-7.51-24.53V264.32q0-36.39,26.3-36.39,13.44,0,19.38,8.51t6.52,25.11q9.69-16.61,19.88-25.11t27.19-8.51a69.6,69.6,0,0,1,33,8.51q16,8.51,16,22.54a21.46,21.46,0,0,1-6.82,16.32q-6.83,6.42-14.73,6.42-3,0-14.34-3.66t-20.07-3.65q-11.87,0-19.38,6.23t-11.67,18.48a129.36,129.36,0,0,0-5.74,29.17Q1253.89,345.21,1253.88,369.53Z"/><path class="cls-3" d="M1504,417q-19.57,15.22-37.87,22.84t-41,7.61q-20.78,0-36.49-8.21A60,60,0,0,1,1364.43,417a57.72,57.72,0,0,1-8.51-30.46q0-22.14,14-37.77t38.57-21q5.13-1.19,25.51-5.34t34.9-7.61q14.54-3.47,31.54-8.41-1-21.36-8.6-31.34t-31.54-10q-20.58,0-30.95,5.74t-17.8,17.2a182.59,182.59,0,0,1-10.48,15.13q-3.06,3.66-13.15,3.66a23,23,0,0,1-15.72-5.84,19,19,0,0,1-6.63-14.93q0-14.24,10.09-27.68t31.44-22.15q21.36-8.7,53.2-8.7,35.6,0,56,8.4t28.78,26.6q8.4,18.19,8.4,48.25,0,19-.1,32.24t-.3,29.46a108.55,108.55,0,0,0,5.05,31.74q5,16.51,5,21.26,0,8.31-7.81,15.13a26.18,26.18,0,0,1-17.7,6.82q-8.31,0-16.41-7.81T1504,417Zm-3.56-78.12q-11.87,4.36-34.51,9.2t-31.34,7.12a42.65,42.65,0,0,0-16.61,8.9q-7.92,6.63-7.91,18.49a27.36,27.36,0,0,0,9.29,20.86q9.3,8.61,24.33,8.6a63.27,63.27,0,0,0,29.56-7q13.55-7,19.88-18.09,7.3-12.26,7.31-40.34Z"/><path class="cls-1" d="M1628.33,446.22a23.2,23.2,0,0,1-15.94-6q-6.71-6-6.7-16.68a21.62,21.62,0,0,1,6.4-15.63,21.22,21.22,0,0,1,15.79-6.56,22.06,22.06,0,0,1,16,6.48,21.16,21.16,0,0,1,6.63,15.71q0,10.57-6.63,16.61A22.37,22.37,0,0,1,1628.33,446.22Z"/><path class="cls-3" d="M1883.28,341.64v71.79q0,17-7.71,25.51t-20.37,8.5q-12.27,0-19.88-8.5t-7.61-25.51v-86q0-20.36-1.38-31.64t-7.52-18.49q-6.13-7.22-19.38-7.21-26.51,0-34.9,18.19t-8.41,52.21v73q0,16.8-7.61,25.41t-20.07,8.6q-12.27,0-20.07-8.6t-7.82-25.41V259q0-15.23,7-23.14t18.49-7.91a25.13,25.13,0,0,1,18.49,7.42q7.41,7.41,7.41,20.47V261q14-16.81,30.06-24.72a79.32,79.32,0,0,1,35.59-7.91q20.37,0,35,8.11T1876.75,261q13.65-16.62,29.27-24.62a74.71,74.71,0,0,1,34.61-8q22.14,0,38.16,8.7A55.35,55.35,0,0,1,2002.72,262q6.93,14.64,6.92,46.07V413.43q0,17-7.71,25.51t-20.37,8.5q-12.25,0-20.07-8.6t-7.81-25.41V322.66a208,208,0,0,0-1.48-27.89,32,32,0,0,0-8-17.6q-6.53-7.11-19.78-7.11a36.28,36.28,0,0,0-20.27,6.32,43,43,0,0,0-14.93,17Q1883.29,307,1883.28,341.64Z"/><path class="cls-3" d="M2212.74,350.94h-105.6q.2,18.39,7.41,32.43t19.19,21.16a50.68,50.68,0,0,0,26.39,7.12,64.48,64.48,0,0,0,17.7-2.28,57.19,57.19,0,0,0,15.53-7.12,117.5,117.5,0,0,0,13.84-10.38q6.33-5.53,16.41-15,4.16-3.55,11.87-3.56,8.31,0,13.45,4.55t5.14,12.86q0,7.31-5.74,17.1T2231,426.58q-11.57,9-29.07,14.93t-40.24,5.93q-52,0-80.88-29.66T2052,337.29a134.38,134.38,0,0,1,7.12-44.39,97.93,97.93,0,0,1,20.77-35.11,90.09,90.09,0,0,1,33.61-22.44q20-7.82,44.3-7.81,31.63,0,54.29,13.35t33.91,34.5q11.26,21.17,11.27,43.11,0,20.38-11.67,26.41T2212.74,350.94Zm-105.6-30.65H2205q-2-27.69-14.94-41.44T2156,265.11q-20.16,0-33.12,13.94T2107.14,320.29Z"/><path class="cls-1" d="M2357.39,487V111.76h-42.7q-16.58,0-25.24-7.63t-8.66-19.8q0-12.42,8.66-20t25.24-7.64h63.92q23.8,0,34.8,11.39t11,35.71V495q0,24.08-10.87,35.58t-34.93,11.52h-63.92q-16.58,0-25.24-7.63t-8.66-19.8q0-12.42,8.66-20.06t25.24-7.63Z"/></g></svg>