<?xml version="1.0" encoding="iso-8859-1"?>
<!-- Generator: Adobe Illustrator 19.0.0, SVG Export Plug-In . SVG Version: 6.00 Build 0)  -->
<svg xmlns="http://www.w3.org/2000/svg" xmlns:xlink="http://www.w3.org/1999/xlink" version="1.1" id="Capa_1" x="0px" y="0px" viewBox="0 0 60 60" style="enable-background:new 0 0 60 60;" xml:space="preserve" width="512px" height="512px">
<g>
	<path d="M36,48c0.553,0,1-0.447,1-1s-0.447-1-1-1H23c-0.553,0-1,0.447-1,1s0.447,1,1,1H36z" fill="#FFFFFF"/>
	<path d="M41,50H18c-0.553,0-1,0.447-1,1s0.447,1,1,1h23c0.553,0,1-0.447,1-1S41.553,50,41,50z" fill="#FFFFFF"/>
	<path d="M7,3C4.794,3,3,4.794,3,7s1.794,4,4,4s4-1.794,4-4S9.206,3,7,3z M7,9C5.897,9,5,8.103,5,7s0.897-2,2-2s2,0.897,2,2   S8.103,9,7,9z" fill="#FFFFFF"/>
	<path d="M16,3c-2.206,0-4,1.794-4,4s1.794,4,4,4s4-1.794,4-4S18.206,3,16,3z M16,9c-1.103,0-2-0.897-2-2s0.897-2,2-2s2,0.897,2,2   S17.103,9,16,9z" fill="#FFFFFF"/>
	<path d="M25,3c-2.206,0-4,1.794-4,4s1.794,4,4,4s4-1.794,4-4S27.206,3,25,3z M25,9c-1.103,0-2-0.897-2-2s0.897-2,2-2s2,0.897,2,2   S26.103,9,25,9z" fill="#FFFFFF"/>
	<path d="M0,0v14v46h60V14V0H0z M2,2h56v10H2V2z M58,58H2V14h56V58z" fill="#FFFFFF"/>
	<path d="M21.456,39.773l-0.045,0.042l0.977,0.708c0.032,0.023,0.066,0.042,0.098,0.065c0.194,0.138,0.391,0.268,0.593,0.396   c0.123,0.078,0.247,0.153,0.372,0.226c0.191,0.112,0.382,0.222,0.578,0.324c0.165,0.086,0.334,0.164,0.503,0.243   c0.168,0.078,0.332,0.161,0.504,0.233c0.335,0.14,0.676,0.264,1.021,0.375c0.12,0.038,0.244,0.068,0.365,0.103   c0.259,0.075,0.519,0.144,0.783,0.202c0.136,0.03,0.272,0.056,0.409,0.081c0.27,0.05,0.541,0.092,0.815,0.125   c0.124,0.015,0.247,0.032,0.371,0.044C29.197,42.976,29.597,43,30,43c0.403,0,0.802-0.024,1.199-0.061   c0.125-0.011,0.247-0.029,0.371-0.044c0.274-0.033,0.546-0.074,0.816-0.125c0.136-0.025,0.271-0.051,0.406-0.08   c0.267-0.059,0.53-0.129,0.792-0.204c0.118-0.034,0.238-0.063,0.355-0.1c0.346-0.111,0.688-0.236,1.025-0.376   c0.165-0.068,0.323-0.148,0.485-0.223c0.176-0.082,0.352-0.163,0.524-0.253c0.19-0.099,0.375-0.205,0.559-0.313   c0.133-0.078,0.266-0.158,0.397-0.241c0.193-0.122,0.383-0.247,0.568-0.378c0.034-0.024,0.071-0.045,0.105-0.07l1.012-0.731   l-0.05-0.045C41.276,37.372,43,33.887,43,30c0-7.168-5.832-13-13-13s-13,5.832-13,13C17,33.896,18.732,37.389,21.456,39.773z    M27.327,40.658c-0.401-0.099-0.795-0.225-1.182-0.369c-0.043-0.016-0.086-0.031-0.128-0.047c-0.396-0.153-0.785-0.327-1.161-0.528   l2.428-1.324c0.746-0.407,1.209-1.188,1.209-2.037v-1.688l-0.233-0.278c-0.008-0.01-0.804-0.987-1.104-2.294l-0.134-0.468   l-0.342-0.221l0.033-1.51l0.33-0.298v-2.54l-0.007-0.118c-0.004-0.031-0.074-0.771,0.441-1.345   c0.471-0.522,1.353-0.799,2.551-0.799s2.08,0.276,2.551,0.799c0.516,0.573,0.445,1.313,0.443,1.332l-0.009,2.227l0.033,0.505   l0.33,0.298v1.449c0,0.043-0.039,0.071-0.065,0.079l-0.498,0.153l-0.16,0.497c-0.223,0.692-0.539,1.33-0.942,1.898   c-0.093,0.133-0.181,0.246-0.258,0.333l-0.251,0.284v1.737c0,0.884,0.491,1.679,1.281,2.074l2.584,1.292   c-0.014,0.008-0.029,0.014-0.044,0.021c-0.354,0.184-0.719,0.344-1.09,0.486c-0.059,0.023-0.118,0.043-0.177,0.065   c-0.383,0.138-0.771,0.26-1.167,0.354c-0.002,0-0.004,0.001-0.005,0.001c-1.718,0.408-3.533,0.401-5.248-0.021   C27.333,40.659,27.33,40.659,27.327,40.658z M30,19c6.065,0,11,4.935,11,11c0,3.414-1.564,6.47-4.013,8.489   c-0.049-0.028-0.096-0.061-0.146-0.086l-3.462-1.73c-0.107-0.054-0.177-0.166-0.177-0.286v-1.005   c0.047-0.062,0.095-0.127,0.143-0.195c0.438-0.617,0.797-1.298,1.069-2.028c0.592-0.375,0.963-1.027,0.963-1.754v-1.449   c0-0.417-0.129-0.824-0.363-1.167v-1.68c0.032-0.361,0.072-1.69-0.916-2.817c-0.871-0.992-2.239-1.496-4.069-1.496   s-3.198,0.504-4.069,1.496c-0.987,1.127-0.948,2.455-0.916,2.816v1.681c-0.234,0.343-0.363,0.75-0.363,1.167v1.449   c0,0.561,0.224,1.087,0.613,1.475c0.322,1.139,0.883,2.036,1.199,2.482v0.991c0,0.117-0.064,0.225-0.167,0.281l-3.232,1.764   c-0.037,0.02-0.071,0.047-0.107,0.068C20.553,36.446,19,33.401,19,30C19,23.935,23.935,19,30,19z" fill="#FFFFFF"/>
</g>
<g>
</g>
<g>
</g>
<g>
</g>
<g>
</g>
<g>
</g>
<g>
</g>
<g>
</g>
<g>
</g>
<g>
</g>
<g>
</g>
<g>
</g>
<g>
</g>
<g>
</g>
<g>
</g>
<g>
</g>
</svg>
