<svg xmlns="http://www.w3.org/2000/svg" viewBox="0 0 800 600"><defs><style>.cls-1{fill:#fff;}</style></defs><title>WebFrame Logo White</title><g id="W"><path class="cls-1" d="M170.72,111.76H127.5V487h43.22q33.39,0,33.39,27.69,0,27.42-33.39,27.43H106.28q-15.78,0-26-5.17a32,32,0,0,1-15-15.66q-4.8-10.49-4.79-26.27V103.74q0-24.31,10.87-35.71t34.93-11.39h64.44q16.82,0,25.1,7.51t8.29,20.18Q204.11,111.77,170.72,111.76Z"/><path class="cls-1" d="M447,396.82,400.1,223,352.64,396.82q-5.53,19.77-8.8,28.37a37.7,37.7,0,0,1-11.37,15.43q-8.12,6.83-21.56,6.82-10.87,0-17.89-4.05a31.08,31.08,0,0,1-11.38-11.47,72,72,0,0,1-7.11-17.6q-2.77-10.19-4.95-18.89L221.33,200.25q-4.35-17-4.35-25.91a25.44,25.44,0,0,1,7.91-19,27,27,0,0,1,19.58-7.71q16,0,21.55,10.28t9.69,29.86l38,169.28,42.52-158.4A255.54,255.54,0,0,1,364.7,171,39.84,39.84,0,0,1,377,154.57q8.51-6.93,23.14-6.92,14.83,0,23,7.21t11.37,15.72q3.17,8.5,8.5,28.09l42.91,158.4,38-169.28A202.81,202.81,0,0,1,529.13,167a33.23,33.23,0,0,1,8.51-13.45q6-5.94,17.5-5.93a27.26,27.26,0,0,1,19.48,7.61,25.24,25.24,0,0,1,8,19.08q0,8.11-4.35,25.91L530,395.43q-4.93,19.79-8.2,29a38.6,38.6,0,0,1-11.08,16.12q-7.82,6.92-22.05,6.92-13.44,0-21.55-6.72a36.26,36.26,0,0,1-11.27-15.13Q452.69,417.19,447,396.82Z"/><path class="cls-1" d="M672.5,487V111.76H629.8q-16.57,0-25.24-7.63t-8.67-19.8q0-12.42,8.67-20t25.24-7.64h63.92q23.81,0,34.8,11.39t11,35.71V495q0,24.08-10.87,35.58t-34.93,11.52H629.8q-16.57,0-25.24-7.63t-8.67-19.8q0-12.42,8.67-20.06T629.8,487Z"/></g></svg>